<svg aria-hidden="true" style="position: absolute; width: 0; height: 0; overflow: hidden;" version="1.1" xmlns="http://www.w3.org/2000/svg" xmlns:xlink="http://www.w3.org/1999/xlink">
 <defs>
  <symbol id="icon-facebook" viewBox="0 0 32 32">
    <path d="M30.674 16c0-2.902-0.861-5.739-2.473-8.152s-3.904-4.294-6.585-5.405c-2.681-1.111-5.632-1.401-8.478-0.835s-5.461 1.964-7.513 4.016c-2.052 2.052-3.45 4.667-4.016 7.513s-0.276 5.797 0.835 8.478c1.111 2.681 2.991 4.973 5.405 6.585s5.25 2.473 8.152 2.473c3.891-0.004 7.621-1.551 10.372-4.302s4.298-6.481 4.302-10.372zM17.63 27.291v-7.486h2.717c0.432 0 0.847-0.172 1.153-0.478s0.478-0.72 0.478-1.153-0.172-0.847-0.478-1.153c-0.306-0.306-0.72-0.478-1.153-0.478h-2.717v-2.717c0-0.432 0.172-0.847 0.477-1.153s0.721-0.478 1.153-0.478h2.174c0.432 0 0.847-0.172 1.153-0.478s0.477-0.72 0.477-1.153c0-0.432-0.172-0.847-0.477-1.153s-0.72-0.478-1.153-0.478h-2.174c-1.297 0-2.541 0.515-3.459 1.433s-1.433 2.161-1.433 3.459v2.717h-2.717c-0.432 0-0.847 0.172-1.153 0.478s-0.478 0.72-0.478 1.153 0.172 0.847 0.478 1.153c0.306 0.306 0.72 0.478 1.153 0.478h2.717v7.486c-2.856-0.412-5.45-1.891-7.259-4.138s-2.701-5.097-2.494-7.975 1.496-5.571 3.608-7.537c2.112-1.966 4.89-3.059 7.776-3.059s5.664 1.093 7.776 3.059c2.112 1.966 3.401 4.659 3.608 7.537s-0.685 5.728-2.494 7.975c-1.81 2.247-4.403 3.726-7.259 4.138z"></path>
  </symbol>
  <symbol id="icon-instagram" viewBox="0 0 32 32">
    <path d="M9.28 0h13.44c5.12 0 9.28 4.16 9.28 9.28v13.44c0 2.461-0.978 4.822-2.718 6.562s-4.101 2.718-6.562 2.718h-13.44c-5.12 0-9.28-4.16-9.28-9.28v-13.44c0-2.461 0.978-4.822 2.718-6.562s4.101-2.718 6.562-2.718zM8.96 3.2c-1.528 0-2.993 0.607-4.073 1.687s-1.687 2.545-1.687 4.073v14.080c0 3.184 2.576 5.76 5.76 5.76h14.080c1.528 0 2.993-0.607 4.073-1.687s1.687-2.545 1.687-4.073v-14.080c0-3.184-2.576-5.76-5.76-5.76h-14.080zM24.4 5.6c0.53 0 1.039 0.211 1.414 0.586s0.586 0.884 0.586 1.414c0 0.53-0.211 1.039-0.586 1.414s-0.884 0.586-1.414 0.586c-0.53 0-1.039-0.211-1.414-0.586s-0.586-0.884-0.586-1.414c0-0.53 0.211-1.039 0.586-1.414s0.884-0.586 1.414-0.586zM16 8c2.122 0 4.157 0.843 5.657 2.343s2.343 3.535 2.343 5.657c0 2.122-0.843 4.157-2.343 5.657s-3.535 2.343-5.657 2.343c-2.122 0-4.157-0.843-5.657-2.343s-2.343-3.535-2.343-5.657c0-2.122 0.843-4.157 2.343-5.657s3.535-2.343 5.657-2.343zM16 11.2c-1.273 0-2.494 0.506-3.394 1.406s-1.406 2.121-1.406 3.394c0 1.273 0.506 2.494 1.406 3.394s2.121 1.406 3.394 1.406c1.273 0 2.494-0.506 3.394-1.406s1.406-2.121 1.406-3.394c0-1.273-0.506-2.494-1.406-3.394s-2.121-1.406-3.394-1.406z"></path>
  </symbol>
  <symbol id="icon-twitter" viewBox="0 0 32 32">
    <path d="M22.667 11.929c-0.491 0.213-1.017 0.36-1.571 0.424 0.565-0.333 0.997-0.861 1.203-1.489-0.539 0.314-1.127 0.535-1.739 0.653-0.257-0.27-0.567-0.485-0.91-0.631s-0.713-0.221-1.086-0.22c-1.511 0-2.735 1.207-2.735 2.693 0 0.211 0.024 0.416 0.071 0.613-1.084-0.051-2.145-0.328-3.115-0.813s-1.83-1.166-2.522-2.001c-0.243 0.409-0.371 0.877-0.371 1.353 0 0.933 0.484 1.76 1.217 2.241-0.434-0.014-0.859-0.129-1.24-0.337v0.033c0.004 0.626 0.225 1.231 0.625 1.713s0.955 0.809 1.569 0.927c-0.404 0.107-0.826 0.122-1.236 0.045 0.179 0.539 0.521 1.008 0.979 1.343s1.009 0.52 1.576 0.527c-0.973 0.75-2.168 1.155-3.397 1.152-0.22 0-0.437-0.013-0.652-0.037 1.254 0.794 2.708 1.214 4.192 1.212 5.032 0 7.783-4.104 7.783-7.664l-0.009-0.349c0.536-0.377 1-0.848 1.368-1.391z"></path>
    <path d="M8 5.333c-0.707 0-1.386 0.281-1.886 0.781s-0.781 1.178-0.781 1.886v16c0 0.707 0.281 1.385 0.781 1.886s1.178 0.781 1.886 0.781h16c0.707 0 1.385-0.281 1.886-0.781s0.781-1.178 0.781-1.886v-16c0-0.707-0.281-1.386-0.781-1.886s-1.178-0.781-1.886-0.781h-16zM8 2.667h16c1.415 0 2.771 0.562 3.771 1.562s1.562 2.357 1.562 3.771v16c0 1.415-0.562 2.771-1.562 3.771s-2.357 1.562-3.771 1.562h-16c-1.415 0-2.771-0.562-3.771-1.562s-1.562-2.357-1.562-3.771v-16c0-1.415 0.562-2.771 1.562-3.771s2.357-1.562 3.771-1.562z"></path>
  </symbol>
  <symbol id="letter-o" viewBox="0 0 29 32">
    <path d="M28.942 15.836c0 2.361-0.299 4.508-0.896 6.443-0.597 1.906-1.493 3.556-2.688 4.949-1.166 1.394-2.631 2.46-4.395 3.2-1.735 0.74-3.755 1.109-6.059 1.109-2.389 0-4.466-0.37-6.229-1.109-1.764-0.768-3.228-1.835-4.395-3.2-1.166-1.394-2.034-3.058-2.603-4.992s-0.853-4.082-0.853-6.443c0-3.129 0.512-5.86 1.536-8.192s2.574-4.153 4.651-5.461c2.105-1.308 4.75-1.963 7.936-1.963 3.044 0 5.604 0.654 7.68 1.963 2.076 1.28 3.641 3.1 4.693 5.461 1.081 2.332 1.621 5.077 1.621 8.235zM4.878 15.836c0 2.56 0.356 4.764 1.067 6.613s1.806 3.271 3.285 4.267c1.508 0.996 3.399 1.493 5.675 1.493 2.304 0 4.181-0.498 5.632-1.493 1.479-0.996 2.574-2.418 3.285-4.267s1.067-4.053 1.067-6.613c0-3.84-0.796-6.841-2.389-9.003-1.593-2.19-4.11-3.285-7.552-3.285-2.304 0-4.21 0.498-5.717 1.493-1.479 0.967-2.574 2.375-3.285 4.224-0.711 1.82-1.067 4.011-1.067 6.571z"></path>
  </symbol>
  <symbol id="letter-r" viewBox="0 0 24 32">
    <path d="M9.245 0.666c2.604 0 4.74 0.336 6.407 1.009 1.697 0.644 2.955 1.624 3.774 2.94s1.229 2.97 1.229 4.959c0 1.668-0.307 3.057-0.922 4.169s-1.404 2.004-2.37 2.677c-0.936 0.644-1.931 1.156-2.984 1.536l8.602 14.043h-4.608l-7.592-12.946h-6.232v12.946h-3.95v-31.334h8.646zM9.026 4.089h-4.476v11.63h4.696c1.697 0 3.087-0.219 4.169-0.658 1.082-0.468 1.872-1.141 2.37-2.019 0.527-0.878 0.79-1.975 0.79-3.291 0-1.375-0.278-2.472-0.834-3.291-0.527-0.819-1.346-1.419-2.458-1.799s-2.531-0.571-4.257-0.571z"></path>
  </symbol>
  <symbol id="letter-t" viewBox="0 0 25 32">
    <path d="M14.175 32h-3.95v-27.867h-9.787v-3.467h23.479v3.467h-9.743v27.867z"></path>
  </symbol>
  <symbol id="letter-u" viewBox="0 0 24 32">
    <path d="M23.751 20.359c0 2.105-0.427 4.011-1.28 5.717-0.853 1.678-2.162 3.015-3.925 4.011-1.735 0.967-3.954 1.451-6.656 1.451-3.783 0-6.67-1.024-8.661-3.072-1.963-2.076-2.944-4.807-2.944-8.192v-19.627h3.84v19.755c0 2.475 0.654 4.395 1.963 5.76 1.337 1.365 3.342 2.048 6.016 2.048 1.849 0 3.342-0.327 4.48-0.981 1.166-0.683 2.020-1.607 2.56-2.773 0.54-1.195 0.811-2.56 0.811-4.096v-19.712h3.797v19.712z"></path>
  </symbol>
 </defs>
</svg>
